<svg width="34" height="40" viewBox="0 0 34 40" fill="none" xmlns="http://www.w3.org/2000/svg">
<path d="M31.8324 22.1077L33.0156 20.9153C34.1388 19.8284 34.2221 18.0458 33.2051 16.8573C32.8205 16.4213 32.3125 16.1144 31.7496 15.978L31.9891 15.7366C33.116 14.6508 33.1993 12.865 32.1787 11.6773C31.6555 11.0852 30.9122 10.7381 30.1258 10.7187C29.3388 10.7032 28.5786 11.0065 28.0154 11.5608L27.8833 11.6939C27.3773 11.2092 26.7116 10.9297 26.0138 10.9091C25.2291 10.8943 24.4716 11.1988 23.9124 11.7539L22.5499 13.127C22.241 11.8291 21.0906 10.9131 19.7662 10.9104H19.7621C19.0046 10.9097 18.2782 11.2139 17.7441 11.7553L12.5435 16.9966C12.4461 16.1477 12.0516 15.3615 11.4308 14.7794C10.5856 14.0101 9.28961 14.0465 8.48832 14.8622L3.56138 19.8277C-0.942378 24.2333 -1.20862 31.4308 2.95714 36.1622C5.7621 39.3074 10.046 40.6602 14.1303 39.6904C14.6495 39.7616 15.1728 39.798 15.6967 39.7994C18.7565 39.8012 21.69 38.5698 23.8439 36.3794L33.1025 27.0553C34.2226 25.9641 34.3048 24.1823 33.29 22.9911C32.9053 22.5532 32.3965 22.2448 31.8324 22.1077Z" fill="white"/>
<path d="M6.96297 37.5236C5.83381 36.9524 4.81926 36.1757 3.97054 35.2325C0.29838 31.045 0.545304 24.6869 4.53098 20.8015L9.45791 15.836C9.60619 15.6858 9.80747 15.601 10.0177 15.6001C10.1948 15.5976 10.3662 15.6635 10.4967 15.7842C10.9367 16.1995 11.1907 16.7769 11.2007 17.3844C11.2106 17.9918 10.9756 18.5774 10.5494 19.007L5.91599 23.6739C5.7381 23.8471 5.66676 24.1035 5.72939 24.3446C5.79201 24.5857 5.97885 24.774 6.2181 24.8371C6.45736 24.9003 6.71178 24.8284 6.88359 24.6491L11.5122 19.9849L18.7103 12.7304C18.9891 12.4476 19.3685 12.2889 19.7641 12.2898C20.37 12.2901 20.9161 12.6581 21.1479 13.2222C21.3797 13.7864 21.2517 14.4357 20.8234 14.8677L13.1155 22.6373C12.9376 22.8105 12.8663 23.0669 12.9289 23.308C12.9915 23.5492 13.1783 23.7375 13.4176 23.8006C13.6568 23.8637 13.9113 23.7918 14.0831 23.6125L21.7917 15.8429L24.882 12.7291C25.1729 12.4361 25.5706 12.2765 25.9818 12.2879C26.3929 12.2992 26.7814 12.4804 27.056 12.7891C27.2453 13.0041 27.3648 13.2725 27.3981 13.558C27.3981 13.5767 27.3981 13.5967 27.4015 13.616C27.4085 13.6886 27.4103 13.7617 27.407 13.8346C27.407 13.8601 27.4022 13.8856 27.4002 13.9111C27.3936 13.9807 27.3828 14.0498 27.368 14.118C27.3625 14.1429 27.3564 14.1677 27.3495 14.1925C27.3295 14.2655 27.3048 14.3372 27.2756 14.407C27.2688 14.4242 27.2619 14.4415 27.2544 14.458C27.1701 14.6419 27.0543 14.8093 26.9123 14.9525L25.324 16.5532L24.9504 16.9291L24.9463 16.9339V16.9373L16.201 25.747C16.0231 25.9202 15.9517 26.1766 16.0144 26.4177C16.077 26.6588 16.2638 26.8471 16.5031 26.9102C16.7423 26.9734 16.9968 26.9015 17.1686 26.7222L25.9105 17.9118C25.9385 17.8836 25.9707 17.8636 26.0001 17.838C26.2715 17.6085 26.6128 17.4798 26.967 17.4732C26.9814 17.4732 26.9944 17.4732 27.0081 17.4732C27.1099 17.4759 27.2112 17.4888 27.3105 17.5118C27.6094 17.5828 27.8793 17.7452 28.0831 17.9767C28.2379 18.1532 28.3449 18.367 28.3938 18.5973C28.5128 19.1545 28.342 19.7344 27.9408 20.136L27.8039 20.2739L25.0277 23.0649C25.0216 23.0711 25.0202 23.0787 25.014 23.0849L19.2858 28.858C19.1079 29.0312 19.0366 29.2876 19.0992 29.5287C19.1618 29.7699 19.3486 29.9582 19.5879 30.0213C19.8271 30.0844 20.0816 30.0125 20.2534 29.8332L26.0015 24.0442C26.2123 23.831 26.482 23.6868 26.7754 23.6305L26.7953 23.6249C26.8955 23.6068 26.9973 23.5994 27.0991 23.6029C27.1912 23.6062 27.2828 23.618 27.3728 23.638L27.4015 23.6422C27.4364 23.6504 27.47 23.6663 27.5021 23.6767C27.7603 23.7562 27.9923 23.9046 28.1734 24.1063C28.2379 24.1784 28.2945 24.2573 28.3425 24.3415C28.671 24.9826 28.5439 25.7649 28.0297 26.267L18.7705 35.5939C18.5823 35.7836 18.388 35.9636 18.1889 36.136C18.1519 36.167 18.1143 36.196 18.0773 36.227C17.9186 36.3601 17.7577 36.4884 17.5928 36.6111C17.5285 36.6587 17.4621 36.7042 17.3971 36.7491C17.2562 36.8484 17.1134 36.944 16.9688 37.036C16.8894 37.0863 16.81 37.1346 16.7293 37.1829C16.5924 37.2622 16.4596 37.338 16.3221 37.4118C16.2318 37.4601 16.1408 37.5084 16.0484 37.5539C15.9211 37.6173 15.7918 37.676 15.6617 37.7332C15.5584 37.7794 15.4565 37.827 15.3497 37.8711C15.243 37.9153 15.128 37.9539 15.0171 37.9946C14.8885 38.0415 14.7612 38.0905 14.6312 38.1325C14.6059 38.1408 14.5799 38.147 14.5546 38.1546C14.3547 38.2167 14.1529 38.2739 13.949 38.3236C13.9428 38.3236 13.938 38.3298 13.9312 38.3318C11.5866 38.9007 9.11796 38.6143 6.96297 37.5236Z" fill="#6A0000"/>
<path d="M32.1877 17.7787C32.7084 18.4249 32.6488 19.3659 32.0509 19.9401L29.1365 22.8774L29.0146 23.0001C28.9948 22.9808 28.9729 22.9656 28.9531 22.9477C28.9045 22.9043 28.8552 22.8622 28.8046 22.8229C28.7539 22.7836 28.6841 22.7346 28.6219 22.6932C28.5726 22.6608 28.5233 22.6243 28.472 22.5974C28.3981 22.5553 28.3215 22.5194 28.2448 22.4843C28.2003 22.4636 28.1579 22.4408 28.1127 22.4229C27.9884 22.3725 27.8606 22.3314 27.7302 22.3001L28.6759 21.3463L28.9134 21.1084C29.0342 20.984 29.1445 20.8498 29.2432 20.707C29.2849 20.6484 29.3198 20.587 29.3568 20.5263C29.402 20.4505 29.4451 20.3746 29.4841 20.296C29.5231 20.2174 29.5689 20.118 29.6045 20.0263C29.6168 19.9925 29.6264 19.9574 29.638 19.9256C29.7698 19.5465 29.8244 19.1445 29.7989 18.7436V18.7374C29.7897 18.6071 29.7718 18.4776 29.7455 18.3498C29.74 18.3222 29.7325 18.2946 29.7263 18.267C29.7106 18.198 29.6996 18.1291 29.6791 18.0677L30.0212 17.7229L30.0322 17.7118C30.3186 17.4223 30.7114 17.2655 31.1168 17.2787C31.5271 17.2885 31.915 17.4696 32.1877 17.7787Z" fill="#6A0000"/>
<path d="M28.983 12.5373C29.2765 12.2445 29.676 12.0853 30.0888 12.0966C30.5005 12.1077 30.8892 12.2903 31.1625 12.6008C31.684 13.2469 31.6225 14.1891 31.0215 14.7608L29.0624 16.7346L29.0487 16.7491L28.9276 16.8718C28.9105 16.8559 28.892 16.8428 28.8756 16.8277C28.8208 16.7787 28.7661 16.7311 28.7086 16.6897C28.6511 16.6484 28.6012 16.6118 28.5464 16.5753C28.4917 16.5387 28.4363 16.5001 28.3781 16.467C28.3199 16.4339 28.2412 16.398 28.1728 16.3663C28.1208 16.3415 28.0702 16.3146 28.0168 16.2932C27.8969 16.2453 27.7739 16.2057 27.6486 16.1746H27.6411L27.8813 15.9332C28.0097 15.8012 28.1261 15.6579 28.2289 15.5049C28.2467 15.4794 28.2625 15.4539 28.2789 15.4277C28.3579 15.306 28.4281 15.1788 28.489 15.047C28.5061 15.0104 28.5245 14.978 28.5403 14.9387C28.6035 14.7882 28.6545 14.6327 28.6929 14.4739C28.7052 14.4235 28.7107 14.3725 28.7203 14.3222C28.7407 14.2149 28.7558 14.1068 28.7654 13.998C28.7709 13.9291 28.7736 13.8601 28.7743 13.7863C28.7743 13.6911 28.7695 13.5966 28.7613 13.5015C28.7552 13.4325 28.7524 13.3635 28.7421 13.3001C28.7201 13.1573 28.6874 13.0165 28.6443 12.8787L28.983 12.5373Z" fill="#6A0000"/>
<path d="M22.8763 35.4022C21.4601 36.8405 19.6515 37.8218 17.6804 38.2215C17.7215 38.1953 17.7584 38.1629 17.7995 38.136C18.0198 37.9932 18.232 37.836 18.4441 37.6767C18.5673 37.5849 18.6945 37.4994 18.8136 37.4008C19.0689 37.1939 19.3132 36.9677 19.5533 36.7353C19.6136 36.678 19.6799 36.6284 19.7381 36.5698L28.9966 27.2387C29.1202 27.1109 29.2324 26.9725 29.3319 26.8249C29.3662 26.776 29.3949 26.7256 29.4264 26.6753C29.4804 26.588 29.5299 26.498 29.5749 26.4056C29.6132 26.327 29.6488 26.2491 29.6803 26.1684C29.7001 26.1167 29.7158 26.0636 29.7329 26.0105C29.851 25.6554 29.9016 25.281 29.8821 24.907C29.8821 24.8863 29.8821 24.8656 29.8821 24.8449C29.874 24.7275 29.8582 24.6107 29.8349 24.4953C29.826 24.4491 29.8137 24.4043 29.8027 24.3574C29.7918 24.3105 29.7802 24.2443 29.7631 24.1898L30.1004 23.8491C30.3907 23.5545 30.7886 23.3935 31.2004 23.4041C31.6122 23.4147 32.0015 23.5959 32.2765 23.9049C32.7955 24.5554 32.7342 25.4979 32.1355 26.0746L22.8763 35.4022Z" fill="#6A0000"/>
<path d="M15.1308 5.7801C15.2831 6.1245 15.6816 6.28178 16.0254 6.1332C16.3693 5.98463 16.531 5.58528 16.3885 5.23665L14.3356 0.409066C14.1833 0.0646701 13.7848 -0.0926106 13.4409 0.0559639C13.0971 0.204538 12.9354 0.603885 13.0779 0.952514L15.1308 5.7801Z" fill="#6A0000"/>
<path d="M18.4968 6.19803C18.8747 6.19803 19.1811 5.88926 19.1811 5.50837V1.37044C19.1811 0.989555 18.8747 0.680786 18.4968 0.680786C18.1189 0.680786 17.8125 0.989555 17.8125 1.37044V5.50837C17.8125 5.88926 18.1189 6.19803 18.4968 6.19803Z" fill="#6A0000"/>
<path d="M12.4881 7.31871C12.7243 7.61618 13.1551 7.66434 13.4502 7.42629C13.7454 7.18824 13.7932 6.75411 13.557 6.45664L10.8198 3.00836C10.5836 2.71089 10.1528 2.66272 9.85767 2.90077C9.56251 3.13883 9.51471 3.57296 9.75092 3.87043L12.4881 7.31871Z" fill="#6A0000"/>
</svg>
